<?xml version="1.0" encoding="utf-8"?>
<!-- Generator: Adobe Illustrator 18.0.0, SVG Export Plug-In . SVG Version: 6.00 Build 0)  -->
<!DOCTYPE svg PUBLIC "-//W3C//DTD SVG 1.1//EN" "http://www.w3.org/Graphics/SVG/1.1/DTD/svg11.dtd">
<svg version="1.1" id="Layer_1" xmlns="http://www.w3.org/2000/svg" xmlns:xlink="http://www.w3.org/1999/xlink" x="0px" y="0px"
	 viewBox="557.7 -111.7 73 73" enable-background="new 557.7 -111.7 73 73" xml:space="preserve">
<path fill="#449557" d="M594.2-38.6c-20.1,0-36.5-16.4-36.5-36.5s16.4-36.5,36.5-36.5c20.1,0,36.5,16.4,36.5,36.5
	S614.3-38.6,594.2-38.6z M594.2-110.9c-19.7,0-35.8,16-35.8,35.8s16,35.8,35.8,35.8s35.8-16,35.8-35.8S613.9-110.9,594.2-110.9z"/>
<g>
	<g>
		<path fill="none" stroke="#449557" stroke-miterlimit="10" d="M604.3-67.7l0.7,0.6l12.7-15.4l-0.7-0.6L604.3-67.7z M588.6-83.2
			l-0.7,0.6l11.8,15.4l0.7-0.6L588.6-83.2z M569.8-67.7l0.7,0.6l12.7-16.3l-0.7-0.6L569.8-67.7z M568.5-66.6c-1.2,0-2.2,1-2.2,2.2
			c0,1.2,1,2.2,2.2,2.2c1.2,0,2.2-1,2.2-2.2C570.7-65.6,569.7-66.6,568.5-66.6z M619.9-88.2c-1.2,0-2.2,1-2.2,2.2
			c0,1.2,1,2.2,2.2,2.2s2.2-1,2.2-2.2C622.1-87.2,621.1-88.2,619.9-88.2z M602.1-66.6c-1.2,0-2.2,1-2.2,2.2c0,1.2,1,2.2,2.2,2.2
			c1.2,0,2.2-1,2.2-2.2C604.4-65.6,603.4-66.6,602.1-66.6z M586.2-88.2c-1.2,0-2.2,1-2.2,2.2c0,1.2,1,2.2,2.2,2.2s2.2-1,2.2-2.2
			C588.5-87.2,587.4-88.2,586.2-88.2z"/>
	</g>
</g>
<circle fill="#FFFFFF" cx="569.8" cy="-63.7" r="1.6"/>
<circle fill="#FFFFFF" cx="594.2" cy="-75.2" r="1.6"/>
<circle fill="#FFFFFF" cx="594.2" cy="-75.2" r="1.6"/>
<circle fill="#FFFFFF" cx="594.2" cy="-75.2" r="1.6"/>
</svg>
